<?xml version="1.0" encoding="UTF-8" standalone="no"?>
<svg
   xmlns:dc="http://purl.org/dc/elements/1.1/"
   xmlns:cc="http://creativecommons.org/ns#"
   xmlns:rdf="http://www.w3.org/1999/02/22-rdf-syntax-ns#"
   xmlns:svg="http://www.w3.org/2000/svg"
   xmlns="http://www.w3.org/2000/svg"
   xmlns:sodipodi="http://sodipodi.sourceforge.net/DTD/sodipodi-0.dtd"
   xmlns:inkscape="http://www.inkscape.org/namespaces/inkscape"
   width="577.54443"
   height="350.06406"
   viewBox="0 0 152.80862 92.621116"
   version="1.1"
   id="svg8"
   inkscape:version="1.0.1 (3bc2e813f5, 2020-09-07)"
   sodipodi:docname="guitar_strum_prompt.svg">
  <defs
     id="defs2">
    <rect
       x="-286.07028"
       y="7.3268628"
       width="104.63303"
       height="33.718342"
       id="rect853" />
  </defs>
  <sodipodi:namedview
     id="base"
     pagecolor="#ffffff"
     bordercolor="#666666"
     borderopacity="1.0"
     inkscape:pageopacity="0.0"
     inkscape:pageshadow="2"
     inkscape:zoom="0.7"
     inkscape:cx="421.96785"
     inkscape:cy="52.839562"
     inkscape:document-units="mm"
     inkscape:current-layer="layer1"
     inkscape:document-rotation="0"
     showgrid="false"
     showborder="false"
     fit-margin-top="5"
     units="px"
     fit-margin-right="5"
     fit-margin-bottom="5"
     fit-margin-left="5"
     inkscape:window-width="1920"
     inkscape:window-height="1057"
     inkscape:window-x="1072"
     inkscape:window-y="438"
     inkscape:window-maximized="1" />
  <metadata
     id="metadata5">
    <rdf:RDF>
      <cc:Work
         rdf:about="">
        <dc:format>image/svg+xml</dc:format>
        <dc:type
           rdf:resource="http://purl.org/dc/dcmitype/StillImage" />
        <dc:title></dc:title>
      </cc:Work>
    </rdf:RDF>
  </metadata>
  <g
     inkscape:label="Layer 1"
     inkscape:groupmode="layer"
     id="layer1"
     transform="translate(319.37683,81.875518)">
    <g
       id="g862">
      <g
         id="g839"
         style="fill:#000000;fill-opacity:1;stroke:#000000;stroke-width:5;stroke-miterlimit:4;stroke-dasharray:none;stroke-opacity:1"
         transform="matrix(0.47681644,0,0,0.47681644,-160.4447,-42.143797)">
        <path
           style="fill:#000000;fill-opacity:1;stroke:#000000;stroke-width:5;stroke-linecap:round;stroke-linejoin:round;stroke-miterlimit:4;stroke-dasharray:none;stroke-opacity:1"
           d="m -140.50326,-20.18486 c 0.23347,-0.701925 0.41474,-1.423422 0.7004,-2.105773 0.40811,-0.974853 0.90888,-1.90835 1.37678,-2.855962 2.84811,-5.768184 6.27056,-11.124806 9.78009,-16.507579 4.29651,-6.231078 9.27727,-12.034398 15.14425,-16.846592 3.4439,-2.824739 5.84383,-4.29591 9.52602,-6.750598 1.52703,-0.896363 5.764938,-4.005849 4.581111,-2.689087 -1.263721,1.405625 -3.573311,1.557621 -4.831801,2.967929 -0.93136,1.043707 2.51766,-1.220578 3.79042,-1.800926 3.075143,-1.402183 6.110795,-2.516039 9.35566,-3.439827 5.037625,-0.957601 10.272266,-1.726469 15.418837,-1.324118 0.935239,0.07312 1.8609,0.23898 2.791349,0.358469 4.512842,0.966345 8.982541,2.383279 12.908653,4.868674 0.927002,0.586833 1.802416,1.25145 2.703624,1.877174 5.709766,4.483568 10.492597,10.117457 13.88872,16.546663 0.764098,1.446514 1.385657,2.963942 2.078484,4.445913 3.707622,8.27886 4.791051,17.217345 5.37196,26.16726 0.26189,4.211377 0.217133,8.4570567 -0.271785,12.6522683 -0.429496,3.68532527 -1.298102,7.3282452 -2.00596,10.9660565 -2.12027,8.8954582 -4.396727,17.7514842 -6.392974,26.6765662 -1.895049,8.680627 -2.359093,17.570153 -2.200658,26.427482 0.284628,7.933174 0.657164,15.864718 1.412885,23.768203 0.458611,3.312348 0.850268,6.724645 2.045375,9.877044 0.172141,0.45406 1.519208,3.335012 1.741919,3.814641 l 9.574815,-5.417476 v 0 c -0.395499,-0.843481 -1.341445,-2.821339 -1.675037,-3.691422 -1.174771,-3.064076 -1.66048,-6.349759 -2.120702,-9.578591 -0.828529,-7.835609 -1.293076,-15.703095 -1.58207,-23.57633 -0.07732,-8.790292 0.510132,-17.594603 2.320565,-26.215977 1.942806,-8.984248 4.364955,-17.843677 6.531184,-26.7736765 0.177937,-0.9261088 1.223108,-6.3286079 1.366906,-7.2285294 0.875774,-5.4806991 1.048476,-11.0506661 0.686477,-16.5856421 -0.631436,-9.067938 -1.831512,-18.102305 -5.651664,-26.462128 -0.710035,-1.50881 -1.356577,-3.049169 -2.130112,-4.526431 -3.433829,-6.55775 -8.174498,-12.364272 -13.883177,-17.069217 -0.897419,-0.670291 -1.763811,-1.384258 -2.692255,-2.010871 -3.952726,-2.667727 -8.562482,-4.079994 -13.146034,-5.212993 -0.953884,-0.148523 -1.901158,-0.348572 -2.861649,-0.445571 -5.204468,-0.525597 -10.519476,0.313999 -15.648633,1.086988 -1.026734,0.262543 -2.068136,0.473255 -3.080207,0.787627 -2.078654,0.645676 -4.5753,1.734656 -6.534055,2.615062 -7.496582,3.369511 -14.519761,7.668718 -21.532011,11.935553 -3.74211,2.557896 -5.95191,3.934714 -9.45024,6.88004 -5.85108,4.926163 -10.80954,10.823659 -15.11354,17.122901 -4.5956,7.04015 -4.99202,8.347823 -8.0101,16.238572 z"
           id="path844"
           sodipodi:nodetypes="csccscssscscscsccsccccsccsscccccccscscscsscsccc" />
        <path
           style="fill:#000000;fill-opacity:1;stroke:#000000;stroke-width:5;stroke-linecap:round;stroke-linejoin:round;stroke-miterlimit:4;stroke-dasharray:none;stroke-opacity:1"
           d="m -63.790054,83.549658 c 4.550167,2.314406 8.637138,5.32846 12.620921,8.49018 3.607911,2.740674 7.182975,5.522651 10.795029,8.257952 1.375778,0.98256 2.573922,2.16914 3.774403,3.34994 0.353793,0.348 1.403308,1.4332 1.918758,1.72096 0.270151,0.15082 0.590228,0.18585 0.885344,0.27878 3.359002,-2.21031 6.974832,-4.07263 10.077005,-6.630932 0.484317,-0.399404 0.17511,-1.243827 0.230158,-1.869172 0.258684,-2.938624 0.156617,-5.894822 0.403231,-8.833099 0.101661,-1.211233 0.288338,-2.413826 0.432507,-3.620738 0.996023,-5.5752 2.81276,-10.946239 4.535916,-16.325281 0,0 -9.663486,4.560763 -9.663486,4.560763 v 0 c -1.660872,5.457838 -3.441472,10.899293 -4.486722,16.518911 -0.150273,1.2369 -0.336365,2.469975 -0.450816,3.710704 -0.10314,1.118106 -0.134435,2.241677 -0.201652,3.362518 -0.06494,0.997503 -0.102849,1.997136 -0.194821,2.992512 -0.07584,0.820834 -0.15568,1.643624 -0.30839,2.453694 -0.105407,0.55913 -1.000538,1.83164 -0.463844,1.64271 3.213635,-1.13132 6.058162,-3.11897 9.087241,-4.678458 -0.153054,0.151273 -0.244484,0.46872 -0.459163,0.453818 -0.423979,-0.02943 -1.792861,-1.417521 -1.907148,-1.527175 -1.256088,-1.205166 -2.452857,-2.48431 -3.923024,-3.441694 -3.674134,-2.657065 -7.156948,-5.569331 -10.867168,-8.17952 -4.033766,-3.09432 -8.091225,-6.138754 -12.428696,-8.801385 0,0 -9.405583,6.114012 -9.405583,6.114012 z"
           id="path835" />
      </g>
      <g
         aria-label="Click and Drag to strum!"
         transform="matrix(1.1448085,0,0,1.4287184,7.3151209,-55.674034)"
         id="text851"
         style="font-style:normal;font-weight:normal;font-size:13.996px;line-height:1.25;font-family:sans-serif;text-align:center;text-anchor:middle;white-space:pre;shape-inside:url(#rect853);fill:#000000;fill-opacity:1;stroke:none">
        <path
           d="m -275.77266,19.357077 q -0.37587,0.164016 -0.6834,0.307529 -0.30069,0.143514 -0.79274,0.300696 -0.41687,0.129845 -0.90892,0.218687 -0.48521,0.09568 -1.07294,0.09568 -1.1071,0 -2.01602,-0.307529 -0.90209,-0.314364 -1.57182,-0.97726 -0.65606,-0.649229 -1.0251,-1.646991 -0.36903,-1.004595 -0.36903,-2.330388 0,-1.257453 0.35537,-2.248381 0.35536,-0.990928 1.02509,-1.674326 0.64923,-0.662897 1.56499,-1.01143 0.92258,-0.3485333 2.04336,-0.3485333 0.82008,0 1.63332,0.1981856 0.82008,0.1981857 1.81784,0.6970667 v 1.605986 h -0.10251 q -0.84058,-0.7039 -1.66749,-1.025098 -0.82691,-0.321197 -1.77,-0.321197 -0.77224,0 -1.39414,0.252858 -0.61506,0.246023 -1.10027,0.77224 -0.47154,0.512549 -0.73807,1.298457 -0.25969,0.779074 -0.25969,1.804172 0,1.072935 0.28703,1.845176 0.29386,0.77224 0.75174,1.257453 0.47837,0.505715 1.11394,0.751738 0.64239,0.239189 1.35312,0.239189 0.97726,0 1.83151,-0.334865 0.85425,-0.334865 1.59915,-1.004595 h 0.0957 z"
           style="font-size:13.996px;text-align:center;text-anchor:middle"
           id="path864" />
        <path
           d="m -272.6632,20.095147 h -1.28479 V 9.4614673 h 1.28479 z"
           style="font-size:13.996px;text-align:center;text-anchor:middle"
           id="path866" />
        <path
           d="m -268.74049,11.183631 h -1.4488 V 9.8510045 h 1.4488 z m -0.082,8.911516 h -1.28479 v -7.63356 h 1.28479 z"
           style="font-size:13.996px;text-align:center;text-anchor:middle"
           id="path868" />
        <path
           d="m -260.63538,19.616768 q -0.6424,0.30753 -1.22329,0.478379 -0.57405,0.17085 -1.22328,0.17085 -0.82691,0 -1.51715,-0.23919 -0.69023,-0.246023 -1.18227,-0.73807 -0.49889,-0.492047 -0.77224,-1.243785 -0.27336,-0.751738 -0.27336,-1.756334 0,-1.872512 1.02509,-2.938613 1.03194,-1.066102 2.71993,-1.066102 0.65606,0 1.28479,0.184518 0.63556,0.184517 1.16178,0.451043 v 1.428302 h -0.0683 q -0.58773,-0.457877 -1.21645,-0.7039 -0.6219,-0.246024 -1.21645,-0.246024 -1.09344,0 -1.729,0.738071 -0.62873,0.731236 -0.62873,2.152705 0,1.380465 0.61506,2.125369 0.62189,0.73807 1.74267,0.73807 0.38953,0 0.79274,-0.102509 0.4032,-0.10251 0.7244,-0.266526 0.2802,-0.143513 0.52622,-0.300695 0.24602,-0.164016 0.38954,-0.280193 h 0.0683 z"
           style="font-size:13.996px;text-align:center;text-anchor:middle"
           id="path870" />
        <path
           d="m -252.05873,20.095147 h -1.69483 l -3.06163,-3.341818 -0.83374,0.792742 v 2.549076 h -1.28479 V 9.4614673 h 1.28479 v 6.8203167 l 3.71085,-3.820197 h 1.61965 l -3.54683,3.526336 z"
           style="font-size:13.996px;text-align:center;text-anchor:middle"
           id="path872" />
        <path
           d="m -239.85324,20.095147 h -1.27795 v -0.813244 q -0.17085,0.116178 -0.46471,0.328031 -0.28703,0.20502 -0.56039,0.328032 -0.3212,0.157181 -0.73807,0.259691 -0.41687,0.109344 -0.97726,0.109344 -1.03193,0 -1.7495,-0.683399 -0.71757,-0.683398 -0.71757,-1.742666 0,-0.867916 0.36904,-1.400967 0.37587,-0.539884 1.0661,-0.847414 0.69706,-0.307529 1.67432,-0.416873 0.97726,-0.109343 2.09804,-0.164015 v -0.198186 q 0,-0.437375 -0.15718,-0.724402 -0.15035,-0.287028 -0.43738,-0.451043 -0.27336,-0.157182 -0.65606,-0.211854 -0.38271,-0.05467 -0.79958,-0.05467 -0.50571,0 -1.12761,0.13668 -0.62189,0.129846 -1.28478,0.382703 h -0.0683 v -1.305291 q 0.37586,-0.10251 1.0866,-0.225521 0.71073,-0.123012 1.40097,-0.123012 0.80641,0 1.40096,0.13668 0.60139,0.129845 1.03877,0.451043 0.43054,0.314363 0.65606,0.813244 0.22552,0.498881 0.22552,1.236951 z m -1.27795,-1.879345 v -2.12537 q -0.58773,0.03417 -1.3873,0.10251 -0.79274,0.06834 -1.25745,0.198186 -0.55356,0.157181 -0.89526,0.492047 -0.3417,0.328031 -0.3417,0.908919 0,0.656063 0.39638,0.990928 0.39637,0.328031 1.20961,0.328031 0.67656,0 1.23695,-0.259691 0.56039,-0.266525 1.03877,-0.63556 z"
           style="font-size:13.996px;text-align:center;text-anchor:middle"
           id="path874" />
        <path
           d="m -230.99639,20.095147 h -1.28479 v -4.346414 q 0,-0.526217 -0.0615,-0.984094 -0.0615,-0.464711 -0.22552,-0.724402 -0.17085,-0.287027 -0.49205,-0.423707 -0.3212,-0.143514 -0.83374,-0.143514 -0.52622,0 -1.10028,0.259692 -0.57405,0.259691 -1.10027,0.662896 v 5.699543 h -1.28479 v -7.63356 h 1.28479 v 0.847414 q 0.60139,-0.498881 1.24379,-0.779075 0.64239,-0.280193 1.31896,-0.280193 1.23695,0 1.88618,0.744904 0.64923,0.744905 0.64923,2.145871 z"
           style="font-size:13.996px;text-align:center;text-anchor:middle"
           id="path876" />
        <path
           d="m -222.3309,20.095147 h -1.28479 v -0.799576 q -0.55355,0.478379 -1.15494,0.744904 -0.60139,0.266526 -1.30529,0.266526 -1.3668,0 -2.17321,-1.052434 -0.79958,-1.052433 -0.79958,-2.918111 0,-0.970426 0.27336,-1.728998 0.2802,-0.758573 0.75174,-1.291623 0.46471,-0.519383 1.07977,-0.792743 0.62189,-0.273359 1.28479,-0.273359 0.60139,0 1.0661,0.129846 0.46471,0.123011 0.97726,0.389537 V 9.4614673 h 1.28479 z m -1.28479,-1.879345 v -4.380585 q -0.51938,-0.232355 -0.92942,-0.321197 -0.41004,-0.08884 -0.89525,-0.08884 -1.07977,0 -1.68116,0.751739 -0.60139,0.751738 -0.60139,2.132203 0,1.359963 0.46471,2.070697 0.46471,0.703901 1.48981,0.703901 0.54671,0 1.1071,-0.23919 0.56039,-0.246023 1.0456,-0.628726 z"
           style="font-size:13.996px;text-align:center;text-anchor:middle"
           id="path878" />
        <path
           d="m -206.1822,15.017497 q 0,1.387299 -0.60822,2.514906 -0.60139,1.127608 -1.60599,1.7495 -0.69706,0.430541 -1.55815,0.621893 -0.85424,0.191351 -2.25521,0.191351 h -2.56958 V 9.9193443 h 2.54224 q 1.48981,0 2.36456,0.2186877 0.88159,0.211853 1.48981,0.587722 1.03877,0.649229 1.61966,1.728999 0.58088,1.079769 0.58088,2.562744 z m -1.41463,-0.0205 q 0,-1.195947 -0.41687,-2.016026 -0.41688,-0.820078 -1.24379,-1.291623 -0.60139,-0.341699 -1.27795,-0.471545 -0.67657,-0.136679 -1.61966,-0.136679 h -1.27112 v 7.852248 h 1.27112 q 0.97726,0 1.70166,-0.143514 0.73124,-0.143513 1.33947,-0.533051 0.75857,-0.485212 1.13444,-1.277955 0.3827,-0.792742 0.3827,-1.981855 z"
           style="font-size:13.996px;text-align:center;text-anchor:middle"
           id="path880" />
        <path
           d="m -199.33454,13.862553 h -0.0683 q -0.28703,-0.06834 -0.56039,-0.09567 -0.26653,-0.03417 -0.63556,-0.03417 -0.59456,0 -1.14811,0.266525 -0.55355,0.259691 -1.0661,0.676565 v 5.419349 h -1.28479 v -7.63356 h 1.28479 v 1.127607 q 0.7654,-0.615059 1.34629,-0.867916 0.58773,-0.259691 1.19595,-0.259691 0.33487,0 0.48521,0.0205 0.15035,0.01367 0.45105,0.06151 z"
           style="font-size:13.996px;text-align:center;text-anchor:middle"
           id="path882" />
        <path
           d="m -192.43906,20.095147 h -1.27795 v -0.813244 q -0.17085,0.116178 -0.46471,0.328031 -0.28703,0.20502 -0.56039,0.328032 -0.3212,0.157181 -0.73807,0.259691 -0.41687,0.109344 -0.97726,0.109344 -1.03193,0 -1.7495,-0.683399 -0.71757,-0.683398 -0.71757,-1.742666 0,-0.867916 0.36904,-1.400967 0.37587,-0.539884 1.0661,-0.847414 0.69706,-0.307529 1.67432,-0.416873 0.97726,-0.109343 2.09804,-0.164015 v -0.198186 q 0,-0.437375 -0.15718,-0.724402 -0.15035,-0.287028 -0.43738,-0.451043 -0.27336,-0.157182 -0.65606,-0.211854 -0.3827,-0.05467 -0.79958,-0.05467 -0.50571,0 -1.1276,0.13668 -0.6219,0.129846 -1.28479,0.382703 h -0.0683 v -1.305291 q 0.37587,-0.10251 1.0866,-0.225521 0.71073,-0.123012 1.40097,-0.123012 0.80641,0 1.40096,0.13668 0.60139,0.129845 1.03877,0.451043 0.43054,0.314363 0.65606,0.813244 0.22552,0.498881 0.22552,1.236951 z m -1.27795,-1.879345 v -2.12537 q -0.58772,0.03417 -1.3873,0.10251 -0.79274,0.06834 -1.25745,0.198186 -0.55356,0.157181 -0.89526,0.492047 -0.3417,0.328031 -0.3417,0.908919 0,0.656063 0.39638,0.990928 0.39637,0.328031 1.20961,0.328031 0.67657,0 1.23695,-0.259691 0.56039,-0.266525 1.03877,-0.63556 z"
           style="font-size:13.996px;text-align:center;text-anchor:middle"
           id="path884" />
        <path
           d="m -183.77356,19.227231 q 0,1.940852 -0.88158,2.849772 -0.88159,0.90892 -2.71309,0.90892 -0.60823,0 -1.18912,-0.08884 -0.57405,-0.08201 -1.13444,-0.23919 v -1.312125 h 0.0683 q 0.31436,0.123012 0.99776,0.300696 0.6834,0.184517 1.3668,0.184517 0.65606,0 1.0866,-0.157181 0.43054,-0.157182 0.66973,-0.437375 0.23919,-0.266526 0.3417,-0.642395 0.10251,-0.375869 0.10251,-0.84058 v -0.697066 q -0.58089,0.464711 -1.11394,0.697066 -0.52621,0.225522 -1.34629,0.225522 -1.3668,0 -2.17321,-0.984094 -0.79957,-0.990928 -0.79957,-2.788266 0,-0.984094 0.27335,-1.694828 0.2802,-0.717568 0.75858,-1.236951 0.44421,-0.485213 1.07977,-0.751739 0.63556,-0.273359 1.26428,-0.273359 0.6629,0 1.10711,0.13668 0.45104,0.129845 0.94992,0.403205 l 0.082,-0.328031 h 1.20278 z m -1.28479,-1.230117 v -4.161897 q -0.51255,-0.232355 -0.95675,-0.328031 -0.43738,-0.10251 -0.87475,-0.10251 -1.05927,0 -1.6675,0.710735 -0.60822,0.710734 -0.60822,2.063863 0,1.284789 0.45104,1.947686 0.45104,0.662896 1.49664,0.662896 0.56039,0 1.12078,-0.211853 0.56722,-0.218688 1.03876,-0.580889 z"
           style="font-size:13.996px;text-align:center;text-anchor:middle"
           id="path886" />
        <path
           d="m -261.37004,37.521808 q -0.3622,0.09568 -0.79274,0.157182 -0.42371,0.06151 -0.75857,0.06151 -1.16861,0 -1.77684,-0.628727 -0.60822,-0.628726 -0.60822,-2.016025 v -4.059387 h -0.86792 v -1.07977 h 0.86792 v -2.193709 h 1.28479 v 2.193709 h 2.65158 v 1.07977 h -2.65158 v 3.478498 q 0,0.601391 0.0273,0.94309 0.0273,0.334865 0.19135,0.628726 0.15035,0.27336 0.41004,0.403206 0.26653,0.123011 0.80641,0.123011 0.31437,0 0.65607,-0.08884 0.34169,-0.09568 0.49204,-0.157182 h 0.0683 z"
           style="font-size:13.996px;text-align:center;text-anchor:middle"
           id="path888" />
        <path
           d="m -253.31277,33.776785 q 0,1.865678 -0.95676,2.945447 -0.95676,1.07977 -2.56274,1.07977 -1.61966,0 -2.57641,-1.07977 -0.94993,-1.079769 -0.94993,-2.945447 0,-1.865678 0.94993,-2.945448 0.95675,-1.086603 2.57641,-1.086603 1.60598,0 2.56274,1.086603 0.95676,1.07977 0.95676,2.945448 z m -1.32579,0 q 0,-1.482975 -0.58089,-2.200543 -0.58089,-0.724403 -1.61282,-0.724403 -1.0456,0 -1.62649,0.724403 -0.57405,0.717568 -0.57405,2.200543 0,1.435136 0.58088,2.180041 0.58089,0.73807 1.61966,0.73807 1.0251,0 1.60598,-0.731236 0.58773,-0.738071 0.58773,-2.186875 z"
           style="font-size:13.996px;text-align:center;text-anchor:middle"
           id="path890" />
        <path
           d="m -240.95009,35.389605 q 0,1.0456 -0.86792,1.71533 -0.86108,0.669731 -2.35772,0.669731 -0.84742,0 -1.55815,-0.198186 -0.7039,-0.205019 -1.18228,-0.444209 V 35.6903 h 0.0683 q 0.60822,0.457877 1.35313,0.731237 0.7449,0.266525 1.4283,0.266525 0.84742,0 1.32579,-0.273359 0.47838,-0.27336 0.47838,-0.861082 0,-0.451043 -0.25969,-0.683399 -0.25969,-0.232355 -0.99776,-0.396371 -0.27336,-0.06151 -0.71757,-0.143514 -0.43737,-0.08201 -0.79957,-0.177683 -1.0046,-0.266526 -1.42831,-0.779074 -0.41687,-0.519383 -0.41687,-1.271121 0,-0.471545 0.19135,-0.888418 0.19819,-0.416874 0.59456,-0.744905 0.3827,-0.321197 0.97042,-0.505715 0.59456,-0.191351 1.3258,-0.191351 0.6834,0 1.38046,0.170849 0.7039,0.164016 1.16861,0.403206 v 1.37363 h -0.0683 q -0.49204,-0.362201 -1.19594,-0.608224 -0.7039,-0.252858 -1.38047,-0.252858 -0.7039,0 -1.18911,0.27336 -0.48521,0.266525 -0.48521,0.799576 0,0.471545 0.29386,0.710734 0.28702,0.23919 0.92942,0.389537 0.35537,0.08201 0.79274,0.164016 0.44421,0.08201 0.73807,0.150348 0.89525,0.205019 1.38047,0.7039 0.48521,0.505715 0.48521,1.339461 z"
           style="font-size:13.996px;text-align:center;text-anchor:middle"
           id="path892" />
        <path
           d="m -235.14804,37.521808 q -0.3622,0.09568 -0.79274,0.157182 -0.42371,0.06151 -0.75857,0.06151 -1.16861,0 -1.77684,-0.628727 -0.60822,-0.628726 -0.60822,-2.016025 v -4.059387 h -0.86792 v -1.07977 h 0.86792 v -2.193709 h 1.28479 v 2.193709 h 2.65158 v 1.07977 h -2.65158 v 3.478498 q 0,0.601391 0.0273,0.94309 0.0273,0.334865 0.19135,0.628726 0.15035,0.27336 0.41004,0.403206 0.26653,0.123011 0.80641,0.123011 0.31437,0 0.65607,-0.08884 0.34169,-0.09568 0.49204,-0.157182 h 0.0683 z"
           style="font-size:13.996px;text-align:center;text-anchor:middle"
           id="path894" />
        <path
           d="m -228.83344,31.357554 h -0.0683 q -0.28702,-0.06834 -0.56038,-0.09568 -0.26653,-0.03417 -0.63556,-0.03417 -0.59456,0 -1.14811,0.266525 -0.55356,0.259691 -1.06611,0.676564 v 5.41935 h -1.28478 v -7.633561 h 1.28478 v 1.127608 q 0.76541,-0.615059 1.3463,-0.867916 0.58772,-0.259692 1.19595,-0.259692 0.33486,0 0.48521,0.0205 0.15035,0.01367 0.45104,0.06151 z"
           style="font-size:13.996px;text-align:center;text-anchor:middle"
           id="path896" />
        <path
           d="m -221.29555,37.590148 h -1.28479 v -0.847414 q -0.64923,0.512549 -1.24379,0.785908 -0.59455,0.27336 -1.31212,0.27336 -1.20278,0 -1.87251,-0.731237 -0.66973,-0.73807 -0.66973,-2.159539 v -4.954639 h 1.28479 v 4.346415 q 0,0.580888 0.0547,0.997761 0.0547,0.410039 0.23235,0.703901 0.18452,0.300695 0.47838,0.437375 0.29386,0.136679 0.85425,0.136679 0.49888,0 1.0866,-0.259691 0.59456,-0.259691 1.10711,-0.662897 v -5.699543 h 1.28479 z"
           style="font-size:13.996px;text-align:center;text-anchor:middle"
           id="path898" />
        <path
           d="m -207.62758,37.590148 h -1.28479 v -4.346414 q 0,-0.492047 -0.0478,-0.949924 -0.041,-0.457877 -0.18452,-0.731236 -0.15718,-0.293862 -0.45104,-0.444209 -0.29386,-0.150348 -0.84741,-0.150348 -0.53989,0 -1.07977,0.273359 -0.53989,0.266526 -1.07977,0.683399 0.0205,0.157182 0.0342,0.369035 0.0137,0.20502 0.0137,0.410039 v 4.886299 h -1.28479 v -4.346414 q 0,-0.505715 -0.0478,-0.956758 -0.041,-0.457877 -0.18452,-0.731236 -0.15718,-0.293862 -0.45104,-0.437375 -0.29386,-0.150348 -0.84742,-0.150348 -0.52621,0 -1.05926,0.259692 -0.52622,0.259691 -1.05244,0.662896 v 5.699543 h -1.28479 v -7.633561 h 1.28479 v 0.847414 q 0.60139,-0.49888 1.19595,-0.779074 0.60139,-0.280193 1.27796,-0.280193 0.77907,0 1.31895,0.328031 0.54672,0.328031 0.81325,0.90892 0.77907,-0.656062 1.42147,-0.94309 0.64239,-0.293861 1.37363,-0.293861 1.25745,0 1.85201,0.765406 0.60139,0.758572 0.60139,2.125369 z"
           style="font-size:13.996px;text-align:center;text-anchor:middle"
           id="path900" />
        <path
           d="m -202.89846,27.414345 -0.17769,7.373869 h -1.16178 l -0.19135,-7.373869 z m -0.0683,10.175803 h -1.39414 v -1.441971 h 1.39414 z"
           style="font-size:13.996px;text-align:center;text-anchor:middle"
           id="path902" />
      </g>
    </g>
  </g>
</svg>
