<?xml version="1.0" encoding="UTF-8" standalone="no"?>
<svg
   xmlns:dc="http://purl.org/dc/elements/1.1/"
   xmlns:cc="http://creativecommons.org/ns#"
   xmlns:rdf="http://www.w3.org/1999/02/22-rdf-syntax-ns#"
   xmlns:svg="http://www.w3.org/2000/svg"
   xmlns="http://www.w3.org/2000/svg"
   width="2192.1494mm"
   height="791.92792mm"
   viewBox="0 0 2192.1494 791.92794"
   version="1.1"
   id="svg8">
  <defs
     id="defs2" />
  <metadata
     id="metadata5">
    <rdf:RDF>
      <cc:Work
         rdf:about="">
        <dc:format>image/svg+xml</dc:format>
        <dc:type
           rdf:resource="http://purl.org/dc/dcmitype/StillImage" />
        <dc:title></dc:title>
      </cc:Work>
    </rdf:RDF>
  </metadata>
  <g
     id="layer1"
     transform="translate(716.50669,199.32183)">
    <g
       id="g1489"
       style="stroke:#000000;stroke-opacity:1"
       transform="matrix(0.94911601,0,0,1,-19.19414,8.3613281e-6)">
      <path
         id="rect1149"
         style="fill:#552200;fill-opacity:1;stroke:#000000;stroke-width:5.00001;stroke-linecap:round;stroke-linejoin:round;stroke-miterlimit:4;stroke-dasharray:none;stroke-dashoffset:0;stroke-opacity:1"
         d="m -1173.3555,-104.37695 c -89.365,0 -161.3086,71.943553 -161.3086,161.308591 V 543.06836 c 0,89.36504 71.9436,161.30859 161.3086,161.30859 h 830.85159 c 48.5334,0 91.92232,-21.22589 121.44532,-54.93164 24.98211,-10.57647 60.14855,-25.53649 100.08984,-42.59765 L 13.953125,549.21484 13.888672,300.25 13.824219,51.285156 -120.55664,-6.0839844 c -39.22204,-16.7441786 -74.29157,-31.6468626 -99.62695,-42.3593746 -29.53703,-34.287967 -73.30667,-55.933591 -122.32032,-55.933591 z"
         transform="matrix(0.26458334,0,0,0.26458334,-380.90551,117.26711)" />
    </g>
    <path
       id="path1060-1"
       style="fill:#ffb380;fill-opacity:1;stroke:#000000;stroke-width:1.32292;stroke-linecap:round;stroke-linejoin:round;stroke-miterlimit:4;stroke-dasharray:none;stroke-dashoffset:0;stroke-opacity:1"
       d="m 1188.4514,-198.66037 a 286.52963,395.30243 0 0 0 -138.1114,48.95358 c -1.4221,0.70501 -3.2052,1.63121 -5.1392,2.68202 -33.2951,18.08967 -73.81266,32.4911 -110.30082,39.20536 -46.26737,8.513738 -99.97437,7.44991 -141.94843,-2.81223 -1.64547,-0.4023 -3.13031,-0.75794 -4.48294,-1.07797 A 244.1963,324.24289 0 0 0 712.95748,-127.60063 244.1963,324.24289 0 0 0 468.7615,196.64212 244.1963,324.24289 0 0 0 712.95748,520.88488 244.1963,324.24289 0 0 0 792.44564,503.2265 c 0.59828,-0.14454 1.16626,-0.2808 1.79523,-0.43457 41.97408,-10.26216 95.68055,-11.32597 141.94793,-2.81223 35.3401,6.50301 74.4608,20.21742 107.1376,37.50932 a 286.52963,395.30243 0 0 0 145.125,54.45559 286.52963,395.30243 0 0 0 286.5299,-395.30249 286.52963,395.30243 0 0 0 -286.5299,-395.30249 z" />
    <ellipse
       style="fill:#221800;fill-opacity:1;stroke:#000000;stroke-width:0.23771;stroke-linecap:round;stroke-linejoin:round;stroke-miterlimit:4;stroke-dasharray:none;stroke-dashoffset:0;stroke-opacity:1"
       id="path1031"
       cx="720.29041"
       cy="196.64212"
       rx="122.25095"
       ry="122.25094" />
    <path
       id="rect833"
       style="fill:#552200;stroke:#000000;stroke-width:1.32292;stroke-linejoin:round;stroke-miterlimit:4;stroke-dasharray:none;stroke-opacity:1"
       d="M -380.90552,130.49629 H 624.51117 V 262.78796 H -380.90552 Z" />
    <rect
       style="fill:#666666;stroke:#ffffff;stroke-width:0.267732;stroke-linecap:round;stroke-linejoin:round;stroke-miterlimit:4;stroke-dasharray:none;stroke-dashoffset:0;stroke-opacity:1"
       id="rect835-8"
       width="6.3468504"
       height="132.02394"
       x="-327.85498"
       y="130.63016"
       ry="2.9502556" />
    <rect
       style="fill:#666666;stroke:#ffffff;stroke-width:0.267732;stroke-linecap:round;stroke-linejoin:round;stroke-miterlimit:4;stroke-dasharray:none;stroke-dashoffset:0;stroke-opacity:1"
       id="rect835-8-4"
       width="6.3468504"
       height="132.02394"
       x="-274.93832"
       y="130.63016"
       ry="2.9502554" />
    <rect
       style="fill:#666666;stroke:#ffffff;stroke-width:0.267732;stroke-linecap:round;stroke-linejoin:round;stroke-miterlimit:4;stroke-dasharray:none;stroke-dashoffset:0;stroke-opacity:1"
       id="rect835-8-4-1"
       width="6.3468504"
       height="132.02394"
       x="-222.02164"
       y="130.63016"
       ry="2.9502554" />
    <rect
       style="fill:#666666;stroke:#ffffff;stroke-width:0.267732;stroke-linecap:round;stroke-linejoin:round;stroke-miterlimit:4;stroke-dasharray:none;stroke-dashoffset:0;stroke-opacity:1"
       id="rect835-8-4-0"
       width="6.3468504"
       height="132.02394"
       x="-169.10498"
       y="130.63016"
       ry="2.9502554" />
    <rect
       style="fill:#666666;stroke:#ffffff;stroke-width:0.267732;stroke-linecap:round;stroke-linejoin:round;stroke-miterlimit:4;stroke-dasharray:none;stroke-dashoffset:0;stroke-opacity:1"
       id="rect835-8-4-5"
       width="6.3468504"
       height="132.02394"
       x="-116.18831"
       y="130.63016"
       ry="2.9502554" />
    <rect
       style="fill:#666666;stroke:#ffffff;stroke-width:0.267732;stroke-linecap:round;stroke-linejoin:round;stroke-miterlimit:4;stroke-dasharray:none;stroke-dashoffset:0;stroke-opacity:1"
       id="rect835-8-4-56"
       width="6.3468504"
       height="132.02394"
       x="-63.271641"
       y="130.63016"
       ry="2.9502554" />
    <rect
       style="fill:#666666;stroke:#ffffff;stroke-width:0.267732;stroke-linecap:round;stroke-linejoin:round;stroke-miterlimit:4;stroke-dasharray:none;stroke-dashoffset:0;stroke-opacity:1"
       id="rect835-8-4-8"
       width="6.3468504"
       height="132.02394"
       x="-10.354972"
       y="130.63016"
       ry="2.9502554" />
    <rect
       style="fill:#666666;stroke:#ffffff;stroke-width:0.267732;stroke-linecap:round;stroke-linejoin:round;stroke-miterlimit:4;stroke-dasharray:none;stroke-dashoffset:0;stroke-opacity:1"
       id="rect835-8-4-4"
       width="6.3468504"
       height="132.02394"
       x="42.561695"
       y="130.63016"
       ry="2.9502554" />
    <rect
       style="fill:#666666;stroke:#ffffff;stroke-width:0.267732;stroke-linecap:round;stroke-linejoin:round;stroke-miterlimit:4;stroke-dasharray:none;stroke-dashoffset:0;stroke-opacity:1"
       id="rect835-8-4-9"
       width="6.3468504"
       height="132.02394"
       x="95.478363"
       y="130.63016"
       ry="2.9502554" />
    <rect
       style="fill:#666666;stroke:#ffffff;stroke-width:0.267732;stroke-linecap:round;stroke-linejoin:round;stroke-miterlimit:4;stroke-dasharray:none;stroke-dashoffset:0;stroke-opacity:1"
       id="rect835-8-4-7"
       width="6.3468504"
       height="132.02394"
       x="148.39503"
       y="130.63016"
       ry="2.9502554" />
    <rect
       style="fill:#666666;stroke:#ffffff;stroke-width:0.267732;stroke-linecap:round;stroke-linejoin:round;stroke-miterlimit:4;stroke-dasharray:none;stroke-dashoffset:0;stroke-opacity:1"
       id="rect835-8-4-2"
       width="6.3468504"
       height="132.02394"
       x="201.31169"
       y="130.63016"
       ry="2.9502554" />
    <rect
       style="fill:#666666;stroke:#ffffff;stroke-width:0.267732;stroke-linecap:round;stroke-linejoin:round;stroke-miterlimit:4;stroke-dasharray:none;stroke-dashoffset:0;stroke-opacity:1"
       id="rect835-8-4-01"
       width="6.3468504"
       height="132.02394"
       x="254.22836"
       y="130.63016"
       ry="2.9502554" />
    <rect
       style="fill:#666666;stroke:#ffffff;stroke-width:0.267732;stroke-linecap:round;stroke-linejoin:round;stroke-miterlimit:4;stroke-dasharray:none;stroke-dashoffset:0;stroke-opacity:1"
       id="rect835-8-4-43"
       width="6.3468504"
       height="132.02394"
       x="307.14502"
       y="130.63016"
       ry="2.9502554" />
    <rect
       style="fill:#666666;stroke:#ffffff;stroke-width:0.267732;stroke-linecap:round;stroke-linejoin:round;stroke-miterlimit:4;stroke-dasharray:none;stroke-dashoffset:0;stroke-opacity:1"
       id="rect835-8-4-08"
       width="6.3468504"
       height="132.02394"
       x="360.06171"
       y="130.63016"
       ry="2.9502554" />
    <rect
       style="fill:#666666;stroke:#ffffff;stroke-width:0.267732;stroke-linecap:round;stroke-linejoin:round;stroke-miterlimit:4;stroke-dasharray:none;stroke-dashoffset:0;stroke-opacity:1"
       id="rect835-8-4-59"
       width="6.3468504"
       height="132.02394"
       x="412.97836"
       y="130.63016"
       ry="2.9502554" />
    <rect
       style="fill:#666666;stroke:#ffffff;stroke-width:0.267732;stroke-linecap:round;stroke-linejoin:round;stroke-miterlimit:4;stroke-dasharray:none;stroke-dashoffset:0;stroke-opacity:1"
       id="rect835-8-4-91"
       width="6.3468504"
       height="132.02394"
       x="465.89505"
       y="130.63016"
       ry="2.9502554" />
    <rect
       style="fill:#666666;stroke:#ffffff;stroke-width:0.267732;stroke-linecap:round;stroke-linejoin:round;stroke-miterlimit:4;stroke-dasharray:none;stroke-dashoffset:0;stroke-opacity:1"
       id="rect835-8-4-74"
       width="6.3468504"
       height="132.02394"
       x="518.81171"
       y="130.63016"
       ry="2.9502554" />
    <rect
       style="fill:#666666;stroke:#ffffff;stroke-width:0.267732;stroke-linecap:round;stroke-linejoin:round;stroke-miterlimit:4;stroke-dasharray:none;stroke-dashoffset:0;stroke-opacity:1"
       id="rect835-8-4-23"
       width="6.3468504"
       height="132.02394"
       x="571.72839"
       y="130.63016"
       ry="2.9502554" />
    <rect
       style="fill:#f9ffd9;fill-opacity:1;stroke:#000000;stroke-width:0.296657;stroke-linecap:round;stroke-linejoin:round;stroke-miterlimit:4;stroke-dasharray:none;stroke-dashoffset:0;stroke-opacity:1"
       id="rect835-8-5"
       width="7.6408434"
       height="134.64084"
       x="-380.75717"
       y="129.3217"
       ry="0" />
    <rect
       style="fill:#280b0b;fill-opacity:1;stroke:#000000;stroke-width:0.416581;stroke-linecap:round;stroke-linejoin:round;stroke-miterlimit:4;stroke-dasharray:none;stroke-dashoffset:0;stroke-opacity:1"
       id="rect835-8-5-3"
       width="12.812587"
       height="158.33342"
       x="942.21948"
       y="117.47541"
       ry="0" />
  </g>
</svg>
